<?xml version="1.0" encoding="UTF-8"?>
<svg xmlns="http://www.w3.org/2000/svg" xmlns:xlink="http://www.w3.org/1999/xlink" width="858pt" height="600pt" viewBox="0 0 858 600" version="1.1">
<defs>
<filter id="alpha" filterUnits="objectBoundingBox" x="0%" y="0%" width="100%" height="100%">
  <feColorMatrix type="matrix" in="SourceGraphic" values="0 0 0 0 1 0 0 0 0 1 0 0 0 0 1 0 0 0 1 0"/>
</filter>
<mask id="mask0">
  <g filter="url(#alpha)">
<rect x="0" y="0" width="858" height="600" style="fill:rgb(0%,0%,0%);fill-opacity:0.2;stroke:none;"/>
  </g>
</mask>
<clipPath id="clip1">
  <rect x="0" y="0" width="858" height="600"/>
</clipPath>
<g id="surface5" clip-path="url(#clip1)">
<path style=" stroke:none;fill-rule:nonzero;fill:rgb(0%,0%,0%);fill-opacity:1;" d="M 60.734375 442.824219 L 62.328125 461.988281 L 66.8125 461.558594 L 148.25 453.714844 C 154.257812 453.039062 159.582031 449.53125 162.578125 444.277344 C 165.578125 439.019531 165.890625 432.648438 163.421875 427.125 L 140.496094 375.746094 L 140.496094 370.765625 L 130.925781 350.195312 L 89.449219 340.613281 C 55.246094 366.820312 86.019531 395.742188 124.738281 425 L 124.546875 425.257812 Z M 60.734375 442.824219 "/>
</g>
</defs>
<g id="surface1">
<path style=" stroke:none;fill-rule:nonzero;fill:rgb(18.431373%,18.039216%,25.490196%);fill-opacity:1;" d="M 38.199219 230.300781 C 39.019531 280.984375 57.941406 286.472656 81.179688 281.183594 C 107.726562 275.144531 129.515625 256.21875 140.253906 231.175781 L 147.660156 213.90625 C 157.910156 189.996094 146.859375 162.292969 122.976562 152.027344 C 99.09375 141.765625 71.421875 152.824219 61.167969 176.734375 C 37.339844 186.109375 32.632812 205.507812 38.199219 230.300781 Z M 38.199219 230.300781 "/>
<path style=" stroke:none;fill-rule:nonzero;fill:rgb(62.352941%,38.039216%,41.568627%);fill-opacity:1;" d="M 187.621094 128.292969 L 194.75 116.210938 C 196.515625 113.21875 196.816406 109.585938 195.566406 106.347656 C 194.320312 103.109375 191.65625 100.621094 188.34375 99.59375 C 184.84375 98.507812 181.03125 99.183594 178.117188 101.410156 C 175.203125 103.632812 173.539062 107.132812 173.660156 110.800781 L 174.078125 123.789062 L 140.558594 215.746094 L 158.835938 219.566406 Z M 187.621094 128.292969 "/>
<path style=" stroke:none;fill-rule:nonzero;fill:rgb(62.352941%,38.039216%,41.568627%);fill-opacity:1;" d="M 11.28125 354.988281 L 2.5 365.929688 C 0.328125 368.636719 -0.484375 372.1875 0.289062 375.574219 C 1.066406 378.957031 3.34375 381.800781 6.476562 383.289062 C 9.789062 384.863281 13.65625 384.738281 16.859375 382.949219 C 20.0625 381.164062 22.203125 377.9375 22.609375 374.289062 L 24.042969 361.375 L 70.304688 275.132812 L 52.757812 268.746094 Z M 11.28125 354.988281 "/>
<path style=" stroke:none;fill-rule:nonzero;fill:rgb(18.431373%,18.039216%,25.490196%);fill-opacity:1;" d="M 65.519531 446.019531 L 66.8125 461.558594 L 67.113281 465.183594 L 153.035156 456.910156 C 159.042969 456.230469 164.367188 452.726562 167.363281 447.46875 C 170.363281 442.214844 170.675781 435.84375 168.207031 430.320312 L 140.496094 370.765625 L 130.925781 350.195312 L 89.449219 340.613281 C 55.246094 366.820312 86.019531 395.742188 124.738281 425 C 126.253906 426.152344 127.785156 427.300781 129.332031 428.449219 Z M 65.519531 446.019531 "/>
<path style=" stroke:none;fill-rule:nonzero;fill:rgb(18.431373%,18.039216%,25.490196%);fill-opacity:1;" d="M 36.566406 499.828125 C 38.695312 500.132812 40.832031 499.304688 42.199219 497.644531 L 70.304688 463.585938 L 68.710938 447.613281 L 59.128906 441.859375 C 57.539062 440.90625 55.617188 440.699219 53.863281 441.292969 C 52.109375 441.890625 50.710938 443.226562 50.03125 444.949219 L 31.699219 491.441406 C 31.003906 493.199219 31.152344 495.179688 32.101562 496.816406 C 33.050781 498.449219 34.699219 499.558594 36.566406 499.828125 Z M 36.566406 499.828125 "/>
<use xlink:href="#surface5" mask="url(#mask0)"/>
<path style=" stroke:none;fill-rule:nonzero;fill:rgb(18.431373%,18.039216%,25.490196%);fill-opacity:1;" d="M 28.589844 493.4375 C 30.71875 493.742188 32.855469 492.917969 34.222656 491.257812 L 62.328125 457.195312 L 60.734375 441.226562 L 51.152344 435.46875 C 49.5625 434.515625 47.640625 434.3125 45.886719 434.90625 C 44.132812 435.503906 42.734375 436.839844 42.054688 438.5625 L 23.722656 485.050781 C 23.027344 486.8125 23.179688 488.792969 24.128906 490.425781 C 25.078125 492.0625 26.722656 493.171875 28.589844 493.4375 Z M 28.589844 493.4375 "/>
<path style=" stroke:none;fill-rule:nonzero;fill:rgb(18.431373%,18.039216%,25.490196%);fill-opacity:1;" d="M 57.542969 439.628906 L 59.136719 458.792969 L 145.058594 450.519531 C 151.066406 449.839844 156.390625 446.335938 159.390625 441.082031 C 162.390625 435.828125 162.703125 429.457031 160.238281 423.933594 L 137.308594 372.554688 L 137.308594 343.808594 L 81.472656 334.226562 C 45.921875 361.460938 80.558594 391.632812 121.355469 422.0625 Z M 57.542969 439.628906 "/>
<path style=" stroke:none;fill-rule:nonzero;fill:rgb(62.352941%,38.039216%,41.568627%);fill-opacity:1;" d="M 135.710938 190.492188 C 135.710938 203.722656 125 214.445312 111.78125 214.445312 C 98.566406 214.445312 87.855469 203.722656 87.855469 190.492188 C 87.855469 177.261719 98.566406 166.535156 111.78125 166.535156 C 125 166.535156 135.710938 177.261719 135.710938 190.492188 Z M 135.710938 190.492188 "/>
<path style=" stroke:none;fill-rule:nonzero;fill:rgb(62.352941%,38.039216%,41.568627%);fill-opacity:1;" d="M 79.878906 230.417969 L 113.378906 252.777344 L 142.09375 246.386719 L 126.140625 230.417969 L 126.140625 206.460938 L 100.617188 204.863281 C 100.078125 214.429688 94.605469 223.183594 79.878906 230.417969 Z M 79.878906 230.417969 "/>
<path style=" stroke:none;fill-rule:nonzero;fill:rgb(53.72549%,50.980392%,87.843137%);fill-opacity:1;" d="M 75.089844 342.210938 L 137.308594 350.195312 L 151.664062 283.121094 C 158.335938 265.316406 154.507812 249.585938 142.160156 235.539062 C 141.1875 230.667969 136.988281 227.117188 132.03125 226.964844 L 126.140625 227.222656 C 126.808594 248.402344 111.21875 243.300781 87.855469 225.625 L 85.03125 226.472656 C 77.492188 228.738281 72.757812 236.199219 73.910156 243.992188 L 76.484375 261.378906 C 77.574219 268.269531 79.269531 275.054688 81.546875 281.648438 C 87.925781 300.730469 85.644531 320.9375 75.089844 342.210938 Z M 75.089844 342.210938 "/>
<path style=" stroke:none;fill-rule:nonzero;fill:rgb(53.72549%,50.980392%,87.843137%);fill-opacity:1;" d="M 46.375 270.34375 L 75.089844 279.925781 L 87.855469 233.609375 L 83.53125 231.644531 C 76.089844 228.257812 67.304688 231.234375 63.445312 238.445312 Z M 46.375 270.34375 "/>
<path style=" stroke:none;fill-rule:nonzero;fill:rgb(53.72549%,50.980392%,87.843137%);fill-opacity:1;" d="M 130.925781 227.222656 L 146.878906 244.789062 L 166.023438 214.445312 L 142.09375 201.671875 Z M 130.925781 227.222656 "/>
<path style=" stroke:none;fill-rule:nonzero;fill:rgb(18.431373%,18.039216%,25.490196%);fill-opacity:1;" d="M 83.867188 183.304688 C 98.902344 188.980469 114.949219 188.390625 131.722656 183.304688 L 131.722656 164.140625 L 83.867188 164.140625 Z M 83.867188 183.304688 "/>
<path style=" stroke:none;fill-rule:nonzero;fill:rgb(18.431373%,18.039216%,25.490196%);fill-opacity:1;" d="M 830.179688 512.28125 L 813.683594 519.164062 L 703.703125 369.148438 L 623.96875 521.917969 L 603.347656 517.789062 L 663.835938 307.21875 L 733.945312 307.21875 Z M 830.179688 512.28125 "/>
<path style=" stroke:none;fill-rule:nonzero;fill:rgb(18.431373%,18.039216%,25.490196%);fill-opacity:1;" d="M 852.3125 547.277344 C 850.464844 547.78125 848.492188 547.527344 846.832031 546.570312 L 812.042969 526.515625 C 810.140625 525.421875 808.855469 523.5 808.566406 521.320312 C 808.277344 519.140625 809.019531 516.949219 810.574219 515.394531 L 813.683594 512.28125 L 830.179688 510.90625 L 855.398438 535.144531 C 857.265625 536.9375 858.027344 539.597656 857.386719 542.109375 C 856.746094 544.621094 854.808594 546.59375 852.3125 547.277344 Z M 852.3125 547.277344 "/>
<path style=" stroke:none;fill-rule:nonzero;fill:rgb(18.431373%,18.039216%,25.490196%);fill-opacity:1;" d="M 582.589844 552.78125 C 584.433594 553.285156 586.40625 553.03125 588.066406 552.074219 L 622.859375 532.023438 C 624.761719 530.925781 626.046875 529.003906 626.332031 526.824219 C 626.621094 524.644531 625.878906 522.453125 624.328125 520.898438 L 621.21875 517.785156 L 604.71875 516.410156 L 579.5 540.648438 C 577.632812 542.441406 576.875 545.105469 577.511719 547.617188 C 578.152344 550.125 580.089844 552.101562 582.589844 552.78125 Z M 582.589844 552.78125 "/>
<path style=" stroke:none;fill-rule:nonzero;fill:rgb(100%,72.54902%,72.54902%);fill-opacity:1;" d="M 617.09375 88.390625 L 610.21875 92.519531 L 595.976562 69.347656 C 594.199219 66.460938 593.9375 62.886719 595.277344 59.769531 C 596.613281 56.65625 599.382812 54.386719 602.695312 53.6875 C 605.636719 53.066406 608.695312 53.75 611.097656 55.554688 C 613.496094 57.363281 615 60.117188 615.222656 63.117188 Z M 617.09375 88.390625 "/>
<path style=" stroke:none;fill-rule:nonzero;fill:rgb(100%,72.54902%,72.54902%);fill-opacity:1;" d="M 807.503906 268.804688 L 810.355469 261.304688 L 835.863281 270.699219 C 839.042969 271.867188 841.457031 274.515625 842.328125 277.792969 C 843.203125 281.066406 842.429688 284.566406 840.253906 287.167969 C 838.328125 289.472656 835.5 290.832031 832.5 290.898438 C 829.496094 290.964844 826.613281 289.730469 824.585938 287.511719 Z M 807.503906 268.804688 "/>
<path style=" stroke:none;fill-rule:nonzero;fill:rgb(100%,72.54902%,72.54902%);fill-opacity:1;" d="M 720.199219 150.324219 C 720.199219 161.726562 710.96875 170.96875 699.578125 170.96875 C 688.191406 170.96875 678.957031 161.726562 678.957031 150.324219 C 678.957031 138.921875 688.191406 129.679688 699.578125 129.679688 C 710.96875 129.679688 720.199219 138.921875 720.199219 150.324219 Z M 720.199219 150.324219 "/>
<path style=" stroke:none;fill-rule:nonzero;fill:rgb(100%,72.54902%,72.54902%);fill-opacity:1;" d="M 717.449219 194.363281 L 688.582031 194.363281 L 688.582031 162.710938 L 713.324219 159.957031 Z M 717.449219 194.363281 "/>
<path style=" stroke:none;fill-rule:nonzero;fill:rgb(24.705882%,23.921569%,33.72549%);fill-opacity:1;" d="M 738.070312 315.476562 L 659.710938 315.476562 C 662.472656 271.707031 664.660156 229.40625 659.710938 205.375 L 664.265625 183.480469 C 665.574219 177.1875 671.488281 172.957031 677.859375 173.753906 L 688.582031 175.097656 C 695.839844 187.875 704.617188 187.753906 714.699219 176.472656 L 727.613281 176.472656 C 731.09375 176.472656 734.425781 177.875 736.859375 180.359375 C 739.296875 182.847656 740.628906 186.210938 740.558594 189.691406 C 743.921875 205.113281 745.042969 220.9375 743.882812 236.679688 Z M 738.070312 315.476562 "/>
<path style=" stroke:none;fill-rule:nonzero;fill:rgb(24.705882%,23.921569%,33.72549%);fill-opacity:1;" d="M 606.09375 88.390625 L 617.09375 82.886719 L 676.207031 180.601562 L 659.710938 205.375 Z M 606.09375 88.390625 "/>
<path style=" stroke:none;fill-rule:nonzero;fill:rgb(24.705882%,23.921569%,33.72549%);fill-opacity:1;" d="M 807.660156 272.71875 L 817.058594 264.78125 L 767.117188 194.722656 C 757.144531 180.730469 739.984375 173.777344 723.097656 176.882812 L 721.523438 177.171875 L 740.40625 210.253906 L 765.277344 229.109375 Z M 807.660156 272.71875 "/>
<path style=" stroke:none;fill-rule:nonzero;fill:rgb(18.431373%,18.039216%,25.490196%);fill-opacity:1;" d="M 723.425781 138.136719 C 723.425781 138.136719 727.28125 129.652344 717.261719 125.792969 C 717.261719 125.792969 708.785156 111.90625 691.828125 121.164062 C 691.828125 121.164062 680.269531 125.792969 680.269531 138.136719 C 680.269531 150.480469 676.417969 152.796875 676.417969 152.796875 C 676.417969 152.796875 682.15625 146.902344 683.695312 142.273438 C 685.238281 137.644531 697.222656 136.59375 701.847656 141.222656 C 706.472656 145.851562 718.03125 145.082031 718.03125 145.082031 L 717.261719 162.054688 C 717.261719 162.054688 721.113281 152.023438 722.65625 152.023438 C 724.199219 152.023438 725.738281 138.136719 723.425781 138.136719 Z M 723.425781 138.136719 "/>
<path style=" stroke:none;fill-rule:nonzero;fill:rgb(90.196078%,90.196078%,90.196078%);fill-opacity:1;" d="M 847.699219 593.535156 C 847.699219 589.902344 791.207031 586.957031 721.523438 586.957031 C 651.835938 586.957031 595.347656 589.902344 595.347656 593.535156 C 595.347656 597.167969 651.835938 600.117188 721.523438 600.117188 C 791.207031 600.117188 847.699219 597.167969 847.699219 593.535156 Z M 847.699219 593.535156 "/>
<path style=" stroke:none;fill-rule:nonzero;fill:rgb(90.196078%,90.196078%,90.196078%);fill-opacity:1;" d="M 158.234375 593.535156 C 158.234375 591.617188 128.375 590.058594 91.542969 590.058594 C 54.707031 590.058594 24.847656 591.617188 24.847656 593.535156 C 24.847656 595.457031 54.707031 597.015625 91.542969 597.015625 C 128.375 597.015625 158.234375 595.457031 158.234375 593.535156 Z M 158.234375 593.535156 "/>
<path style=" stroke:none;fill-rule:nonzero;fill:rgb(53.72549%,50.980392%,87.843137%);fill-opacity:1;" d="M 601.097656 115.75 L 195.652344 152.128906 C 191.503906 152.492188 187.847656 149.433594 187.46875 145.285156 L 178.457031 44.597656 C 178.089844 40.449219 181.148438 36.785156 185.292969 36.410156 L 590.738281 0.03125 C 594.886719 -0.335938 598.542969 2.722656 598.921875 6.875 L 607.933594 107.558594 C 608.300781 111.707031 605.242188 115.371094 601.097656 115.75 Z M 601.097656 115.75 "/>
<path style=" stroke:none;fill-rule:nonzero;fill:rgb(100%,100%,100%);fill-opacity:1;" d="M 274.691406 89.550781 C 274.691406 107.058594 260.515625 121.246094 243.027344 121.246094 C 225.542969 121.246094 211.367188 107.058594 211.367188 89.550781 C 211.367188 72.046875 225.542969 57.855469 243.027344 57.855469 C 260.515625 57.855469 274.691406 72.046875 274.691406 89.550781 Z M 274.691406 89.550781 "/>
<path style=" stroke:none;fill-rule:nonzero;fill:rgb(100%,100%,100%);fill-opacity:1;" d="M 313.976562 61.972656 C 311.078125 62.234375 308.941406 64.800781 309.199219 67.703125 C 309.460938 70.605469 312.019531 72.75 314.917969 72.492188 L 562.691406 50.261719 C 564.570312 50.097656 566.21875 48.9375 567.015625 47.226562 C 567.808594 45.511719 567.628906 43.503906 566.542969 41.960938 C 565.457031 40.414062 563.628906 39.570312 561.75 39.738281 Z M 313.976562 61.972656 "/>
<path style=" stroke:none;fill-rule:nonzero;fill:rgb(100%,100%,100%);fill-opacity:1;" d="M 316.800781 93.539062 C 314.921875 93.707031 313.273438 94.863281 312.476562 96.578125 C 311.679688 98.292969 311.859375 100.300781 312.949219 101.84375 C 314.035156 103.390625 315.863281 104.234375 317.742188 104.0625 L 565.515625 81.832031 C 567.398438 81.667969 569.046875 80.507812 569.839844 78.796875 C 570.636719 77.082031 570.453125 75.074219 569.367188 73.527344 C 568.28125 71.984375 566.453125 71.136719 564.574219 71.308594 Z M 316.800781 93.539062 "/>
</g>
</svg>
