<?xml version="1.0" encoding="UTF-8"?>
<svg xmlns="http://www.w3.org/2000/svg" xmlns:xlink="http://www.w3.org/1999/xlink" width="601pt" height="600pt" viewBox="0 0 601 600" version="1.1">
<g id="surface1">
<path style=" stroke:none;fill-rule:nonzero;fill:rgb(94.901961%,94.901961%,94.901961%);fill-opacity:1;" d="M 595.296875 536.472656 C 587.859375 551.921875 574.148438 563.414062 559.78125 572.753906 C 544.074219 582.957031 527.152344 591.152344 509.410156 597.144531 C 506.976562 597.984375 504.519531 598.761719 502.054688 599.507812 L 402.269531 599.507812 C 401.570312 598.75 400.910156 597.960938 400.285156 597.144531 C 393.601562 588.582031 389.988281 577.609375 391.300781 566.863281 C 392.988281 553.054688 403.472656 540.371094 417.050781 537.441406 C 430.640625 534.5 446.132812 542.613281 450.265625 555.902344 C 452.535156 530.292969 455.152344 503.625 468.757812 481.824219 C 481.082031 462.085938 502.417969 447.960938 525.539062 445.433594 C 539.136719 444.015625 552.855469 446.527344 565.070312 452.671875 C 566.191406 453.238281 567.300781 453.832031 568.386719 454.445312 C 575.71875 458.601562 582.1875 464.121094 587.445312 470.707031 C 601.863281 488.96875 605.394531 515.507812 595.296875 536.472656 Z M 595.296875 536.472656 "/>
<path style=" stroke:none;fill-rule:nonzero;fill:rgb(100%,100%,100%);fill-opacity:1;" d="M 567.65625 456.0625 C 521.253906 493.867188 484.585938 542.246094 460.726562 597.144531 C 460.386719 597.925781 460.042969 598.714844 459.710938 599.507812 L 455.011719 599.507812 C 455.34375 598.714844 455.671875 597.925781 456.015625 597.144531 C 460.5625 586.515625 465.582031 576.074219 471.09375 565.90625 C 482.828125 544.28125 496.632812 523.84375 512.3125 504.890625 C 527.984375 485.910156 545.488281 468.523438 564.574219 452.980469 C 564.726562 452.855469 564.890625 452.753906 565.070312 452.671875 C 565.742188 452.378906 566.511719 452.410156 567.15625 452.757812 C 567.804688 453.101562 568.257812 453.722656 568.386719 454.445312 C 568.457031 455.078125 568.175781 455.695312 567.65625 456.0625 Z M 567.65625 456.0625 "/>
<path style=" stroke:none;fill-rule:nonzero;fill:rgb(100%,72.156863%,72.156863%);fill-opacity:1;" d="M 197.4375 346.757812 C 199.796875 344.421875 201.003906 341.160156 200.726562 337.855469 C 200.453125 334.546875 198.730469 331.527344 196.015625 329.613281 L 190.355469 292.269531 L 167.089844 299.59375 L 179.835938 332.910156 C 176.859375 337.789062 177.996094 344.121094 182.488281 347.65625 C 186.980469 351.1875 193.402344 350.800781 197.4375 346.757812 Z M 197.4375 346.757812 "/>
<path style=" stroke:none;fill-rule:nonzero;fill:rgb(53.72549%,50.980392%,87.843137%);fill-opacity:1;" d="M 173.472656 329.1875 L 159.125 262.152344 C 156.28125 249.09375 160.433594 235.496094 170.082031 226.253906 C 188.449219 208.550781 212.058594 186.234375 220.210938 180.460938 C 227.863281 175.003906 237.125 172.269531 246.515625 172.695312 L 246.710938 172.714844 L 259.054688 184.382812 L 232.164062 228.664062 L 191.34375 254.246094 L 195.886719 319.949219 Z M 173.472656 329.1875 "/>
<path style=" stroke:none;fill-rule:nonzero;fill:rgb(80%,80%,80%);fill-opacity:1;" d="M 163.507812 238.089844 L 223.726562 238.089844 C 226.335938 238.089844 228.449219 240.207031 228.449219 242.816406 C 228.449219 245.421875 226.335938 247.539062 223.726562 247.539062 L 163.507812 247.539062 C 160.902344 247.539062 158.785156 245.421875 158.785156 242.816406 C 158.785156 240.207031 160.902344 238.089844 163.507812 238.089844 Z M 163.507812 238.089844 "/>
<path style=" stroke:none;fill-rule:nonzero;fill:rgb(80%,80%,80%);fill-opacity:1;" d="M 163.507812 340.847656 L 223.726562 340.847656 C 226.335938 340.847656 228.449219 342.960938 228.449219 345.570312 C 228.449219 348.179688 226.335938 350.292969 223.726562 350.292969 L 163.507812 350.292969 C 160.902344 350.292969 158.785156 348.179688 158.785156 345.570312 C 158.785156 342.960938 160.902344 340.847656 163.507812 340.847656 Z M 163.507812 340.847656 "/>
<path style=" stroke:none;fill-rule:nonzero;fill:rgb(80%,80%,80%);fill-opacity:1;" d="M 194.210938 598.328125 C 192.984375 598.328125 191.964844 597.390625 191.855469 596.171875 L 161.753906 243.023438 C 161.636719 241.722656 162.597656 240.578125 163.894531 240.460938 C 165.195312 240.347656 166.339844 241.304688 166.457031 242.605469 L 194.175781 568.886719 L 221.105469 242.613281 C 221.21875 241.3125 222.363281 240.347656 223.660156 240.460938 C 224.960938 240.574219 225.921875 241.71875 225.8125 243.015625 L 196.5625 596.167969 C 196.457031 597.386719 195.4375 598.324219 194.210938 598.328125 Z M 194.210938 598.328125 "/>
<path style=" stroke:none;fill-rule:nonzero;fill:rgb(100%,72.156863%,72.156863%);fill-opacity:1;" d="M 292.769531 127.566406 C 292.769531 144.683594 278.898438 158.558594 261.789062 158.558594 C 244.679688 158.558594 230.808594 144.683594 230.808594 127.566406 C 230.808594 110.453125 244.679688 96.578125 261.789062 96.578125 C 278.898438 96.578125 292.769531 110.453125 292.769531 127.566406 Z M 292.769531 127.566406 "/>
<path style=" stroke:none;fill-rule:nonzero;fill:rgb(100%,72.156863%,72.156863%);fill-opacity:1;" d="M 169.457031 584.164062 L 154.722656 579.464844 L 165.824219 520.378906 L 187.570312 527.3125 Z M 169.457031 584.164062 "/>
<path style=" stroke:none;fill-rule:nonzero;fill:rgb(18.431373%,18.039216%,25.490196%);fill-opacity:1;" d="M 168.636719 597.234375 L 121.203125 582.113281 L 121.597656 580.878906 C 124.738281 571.0625 135.230469 565.640625 145.050781 568.761719 L 174.695312 578.214844 Z M 168.636719 597.234375 "/>
<path style=" stroke:none;fill-rule:nonzero;fill:rgb(100%,72.156863%,72.156863%);fill-opacity:1;" d="M 276.65625 583.855469 L 261.191406 583.855469 L 253.832031 524.191406 L 276.65625 524.191406 Z M 276.65625 583.855469 "/>
<path style=" stroke:none;fill-rule:nonzero;fill:rgb(18.431373%,18.039216%,25.490196%);fill-opacity:1;" d="M 231.957031 597.628906 L 279.378906 597.628906 L 279.378906 580.027344 L 249.441406 580.027344 C 239.789062 580.039062 231.96875 587.863281 231.957031 597.519531 Z M 231.957031 597.628906 "/>
<path style=" stroke:none;fill-rule:nonzero;fill:rgb(18.431373%,18.039216%,25.490196%);fill-opacity:1;" d="M 276.203125 564.492188 L 270.984375 563.714844 C 255.152344 561.355469 254.203125 561.214844 251.691406 560.109375 C 250.410156 559.546875 250.316406 551.023438 251.089844 503.117188 C 251.652344 467.949219 252.359375 424.183594 250.992188 400.6875 C 250.875 398.777344 249.464844 397.199219 247.582031 396.867188 C 245.703125 396.535156 243.835938 397.539062 243.078125 399.292969 C 231.296875 426.5 211.535156 487.390625 198.460938 527.683594 C 193.910156 541.699219 190.320312 552.769531 188.046875 559.40625 C 187.136719 562.003906 184.398438 563.488281 181.722656 562.828125 C 170.964844 560.136719 171.683594 558.992188 156.355469 555.027344 C 153.601562 554.324219 151.890625 551.570312 152.480469 548.789062 C 155.253906 535.710938 205.984375 323.671875 209.867188 303.515625 C 210.132812 302.121094 210.945312 300.890625 212.121094 300.097656 C 213.296875 299.304688 214.742188 299.015625 216.132812 299.296875 C 227.554688 301.597656 234.503906 304.039062 245.792969 306.402344 C 257.972656 308.949219 270.566406 311.585938 282.851562 314.046875 C 284.074219 314.292969 285.167969 314.964844 285.945312 315.941406 C 288.984375 319.78125 293.492188 321.9375 298.261719 324.21875 C 301.480469 325.757812 294.191406 325.621094 296.992188 327.839844 C 308.339844 336.824219 292.023438 519.28125 282.164062 560.488281 C 281.507812 563.164062 278.925781 564.898438 276.203125 564.492188 Z M 276.203125 564.492188 "/>
<path style=" stroke:none;fill-rule:nonzero;fill:rgb(18.431373%,18.039216%,25.490196%);fill-opacity:1;" d="M 274.992188 154.683594 C 273.183594 147.007812 282.328125 130.488281 280.519531 122.8125 C 279.296875 117.613281 267.074219 121.144531 264.222656 116.628906 C 261.367188 112.113281 256.589844 108.457031 251.25 108.394531 C 245.113281 108.328125 239.074219 112.882812 233.261719 110.914062 C 227.382812 108.921875 225.503906 100.871094 228.101562 95.234375 C 230.699219 89.59375 236.300781 86.003906 241.832031 83.1875 C 251.25 78.394531 262.21875 74.894531 272.300781 78.066406 C 278.394531 79.984375 283.488281 84.136719 288.421875 88.199219 C 292.914062 91.902344 297.488281 95.691406 300.628906 100.59375 C 306.785156 110.203125 306.414062 123.148438 301.152344 133.277344 C 295.890625 143.402344 286.304688 150.832031 275.746094 155.144531 "/>
<path style=" stroke:none;fill-rule:nonzero;fill:rgb(53.72549%,50.980392%,87.843137%);fill-opacity:1;" d="M 198.921875 333.347656 C 202.265625 327.757812 207.339844 301.578125 213.601562 257.632812 C 217.863281 227.632812 221.578125 197.152344 223.421875 181.582031 C 223.710938 179.023438 225.300781 176.789062 227.625 175.675781 C 228.820312 175.097656 230.007812 174.554688 231.1875 174.039062 C 246.449219 167.398438 261.910156 165.199219 277.148438 167.5 C 292.363281 169.835938 306.632812 176.339844 318.378906 186.292969 L 318.519531 186.421875 L 318.554688 186.609375 C 318.621094 186.957031 325.019531 221.449219 311.910156 244.753906 C 298.984375 267.75 298.832031 328.644531 298.832031 329.257812 L 298.832031 330.039062 L 298.082031 329.824219 C 277.972656 324.078125 200.285156 334.132812 199.503906 334.234375 L 198.292969 334.394531 Z M 198.921875 333.347656 "/>
<path style=" stroke:none;fill-rule:nonzero;fill:rgb(80%,80%,80%);fill-opacity:1;" d="M 255.609375 253.445312 L 315.824219 253.445312 C 318.433594 253.445312 320.550781 255.558594 320.550781 258.167969 C 320.550781 260.777344 318.433594 262.894531 315.824219 262.894531 L 255.609375 262.894531 C 253 262.894531 250.886719 260.777344 250.886719 258.167969 C 250.886719 255.558594 253 253.445312 255.609375 253.445312 Z M 255.609375 253.445312 "/>
<path style=" stroke:none;fill-rule:nonzero;fill:rgb(80%,80%,80%);fill-opacity:1;" d="M 255.609375 356.199219 L 315.824219 356.199219 C 318.433594 356.199219 320.550781 358.316406 320.550781 360.925781 C 320.550781 363.535156 318.433594 365.648438 315.824219 365.648438 L 255.609375 365.648438 C 253 365.648438 250.886719 363.535156 250.886719 360.925781 C 250.886719 358.316406 253 356.199219 255.609375 356.199219 Z M 255.609375 356.199219 "/>
<path style=" stroke:none;fill-rule:nonzero;fill:rgb(80%,80%,80%);fill-opacity:1;" d="M 286.308594 599.507812 C 285.085938 599.507812 284.0625 598.574219 283.957031 597.355469 L 253.851562 258.378906 C 253.734375 257.078125 254.695312 255.929688 255.996094 255.816406 C 257.292969 255.699219 258.441406 256.660156 258.554688 257.960938 L 286.273438 570.066406 L 313.203125 257.964844 C 313.316406 256.667969 314.460938 255.703125 315.757812 255.816406 C 317.058594 255.925781 318.023438 257.070312 317.910156 258.371094 L 288.660156 597.347656 C 288.554688 598.570312 287.535156 599.503906 286.308594 599.507812 Z M 286.308594 599.507812 "/>
<path style=" stroke:none;fill-rule:nonzero;fill:rgb(100%,72.156863%,72.156863%);fill-opacity:1;" d="M 266.863281 357.695312 C 266.152344 354.453125 266.910156 351.0625 268.9375 348.433594 C 270.964844 345.804688 274.050781 344.210938 277.367188 344.078125 L 302.410156 315.804688 L 317.960938 334.597656 L 289.160156 355.640625 C 289.011719 361.355469 284.613281 366.050781 278.925781 366.574219 C 273.238281 367.101562 268.054688 363.285156 266.863281 357.695312 Z M 266.863281 357.695312 "/>
<path style=" stroke:none;fill-rule:nonzero;fill:rgb(53.72549%,50.980392%,87.843137%);fill-opacity:1;" d="M 281.445312 338.019531 L 320.949219 285.328125 L 300.578125 241.664062 L 302.054688 189.878906 L 318.757812 186.792969 L 318.933594 186.882812 C 327.046875 191.628906 333.335938 198.957031 336.796875 207.699219 C 340.507812 216.976562 348.199219 248.542969 354.003906 273.386719 C 357.085938 286.390625 353.183594 300.0625 343.703125 309.480469 L 295.242188 357.957031 Z M 281.445312 338.019531 "/>
<path style=" stroke:none;fill-rule:nonzero;fill:rgb(80%,80%,80%);fill-opacity:1;" d="M 115.84375 584.855469 L 169.890625 597.871094 C 172.054688 598.445312 174.316406 597.386719 175.269531 595.363281 L 221.695312 471.886719 C 222.109375 470.925781 222.109375 469.839844 221.699219 468.878906 C 221.226562 467.800781 220.332031 466.964844 219.226562 466.5625 L 178.589844 451.039062 C 177.292969 450.542969 175.84375 450.625 174.605469 451.261719 C 173.53125 451.792969 172.738281 452.761719 172.433594 453.921875 L 172.433594 453.925781 L 143.75 562.753906 L 143.324219 562.777344 C 143.160156 562.789062 126.71875 563.90625 119.324219 572.785156 C 116.535156 576.148438 115.273438 580.523438 115.84375 584.855469 Z M 115.84375 584.855469 "/>
<path style=" stroke:none;fill-rule:nonzero;fill:rgb(24.705882%,23.921569%,33.72549%);fill-opacity:1;" d="M 585.648438 598.328125 C 585.652344 598.640625 585.527344 598.941406 585.304688 599.164062 C 585.085938 599.382812 584.78125 599.507812 584.46875 599.507812 L 1.179688 599.507812 C 0.527344 599.507812 0 598.980469 0 598.328125 C 0 597.675781 0.527344 597.144531 1.179688 597.144531 L 584.46875 597.144531 C 584.78125 597.144531 585.085938 597.269531 585.304688 597.488281 C 585.527344 597.710938 585.652344 598.011719 585.648438 598.328125 Z M 585.648438 598.328125 "/>
<path style=" stroke:none;fill-rule:nonzero;fill:rgb(70.196078%,70.196078%,70.196078%);fill-opacity:1;" d="M 154.738281 517.988281 L 154.984375 515.640625 L 204.261719 520.859375 L 204.011719 523.207031 Z M 154.738281 517.988281 "/>
<path style=" stroke:none;fill-rule:nonzero;fill:rgb(70.196078%,70.196078%,70.196078%);fill-opacity:1;" d="M 149.71875 537.253906 L 150.6875 535.101562 L 190.34375 552.945312 L 189.371094 555.101562 Z M 149.71875 537.253906 "/>
<path style=" stroke:none;fill-rule:nonzero;fill:rgb(70.196078%,70.196078%,70.196078%);fill-opacity:1;" d="M 209.445312 504.3125 L 162.707031 488.828125 L 163.675781 486.675781 L 210.414062 502.160156 Z M 209.445312 504.3125 "/>
<path style=" stroke:none;fill-rule:nonzero;fill:rgb(70.196078%,70.196078%,70.196078%);fill-opacity:1;" d="M 214.167969 493.683594 L 167.429688 471.113281 L 168.402344 468.957031 L 215.136719 491.527344 Z M 214.167969 493.683594 "/>
<path style=" stroke:none;fill-rule:nonzero;fill:rgb(70.196078%,70.196078%,70.196078%);fill-opacity:1;" d="M 145.035156 555.390625 L 146.566406 553.59375 L 180.265625 582.390625 L 178.730469 584.1875 Z M 145.035156 555.390625 "/>
<path style=" stroke:none;fill-rule:nonzero;fill:rgb(70.196078%,70.196078%,70.196078%);fill-opacity:1;" d="M 134.847656 564.117188 L 137 563.140625 L 150.53125 592.988281 L 148.378906 593.964844 Z M 134.847656 564.117188 "/>
<path style=" stroke:none;fill-rule:nonzero;fill:rgb(94.901961%,94.901961%,94.901961%);fill-opacity:1;" d="M 453.808594 564.550781 L 453.808594 26.199219 C 453.808594 18.929688 453.945312 11.644531 453.808594 4.375 C 453.800781 4.058594 453.808594 3.742188 453.808594 3.421875 C 453.808594 -1.136719 446.722656 -1.144531 446.722656 3.421875 L 446.722656 541.773438 C 446.722656 549.042969 446.585938 556.328125 446.722656 563.597656 C 446.730469 563.914062 446.722656 564.234375 446.722656 564.550781 C 446.722656 569.113281 453.808594 569.121094 453.808594 564.550781 Z M 453.808594 564.550781 "/>
<path style=" stroke:none;fill-rule:nonzero;fill:rgb(94.901961%,94.901961%,94.901961%);fill-opacity:1;" d="M 492.988281 153.886719 L 407.976562 153.886719 C 403.738281 153.882812 400.304688 150.449219 400.300781 146.210938 L 400.300781 42.863281 C 400.304688 38.625 403.738281 35.191406 407.976562 35.1875 L 492.988281 35.1875 C 497.226562 35.191406 500.660156 38.625 500.664062 42.863281 L 500.664062 146.210938 C 500.660156 150.449219 497.226562 153.882812 492.988281 153.886719 Z M 492.988281 153.886719 "/>
</g>
</svg>
