<?xml version="1.0" standalone="no"?>
<!DOCTYPE svg PUBLIC "-//W3C//DTD SVG 20010904//EN"
 "http://www.w3.org/TR/2001/REC-SVG-20010904/DTD/svg10.dtd">
<svg version="1.0" xmlns="http://www.w3.org/2000/svg"
 width="200.000000pt" height="200.000000pt" viewBox="0 0 200.000000 200.000000"
 preserveAspectRatio="xMidYMid meet">

<g transform="translate(0.000000,200.000000) scale(0.100000,-0.100000)"
fill="#000000" stroke="none">
<path d="M540 1130 c0 -89 0 -90 24 -90 21 0 25 6 28 33 2 24 8 33 26 35 19 3
22 -1 22 -32 0 -32 3 -36 25 -36 25 0 25 1 25 90 0 89 0 90 -25 90 -21 0 -25
-5 -25 -30 0 -25 -4 -30 -25 -30 -21 0 -25 5 -25 30 0 25 -4 30 -25 30 -25 0
-25 -1 -25 -90z"/>
<path d="M742 1208 c-18 -18 -15 -133 4 -152 19 -19 104 -22 122 -4 7 7 12 41
12 84 0 56 -3 73 -16 78 -27 10 -110 6 -122 -6z m86 -76 c2 -32 -1 -44 -13
-49 -21 -8 -35 13 -35 53 0 35 8 46 30 42 10 -2 16 -17 18 -46z"/>
<path d="M933 1213 c-8 -3 -13 -23 -13 -49 0 -39 3 -44 28 -50 52 -11 57 -18
15 -22 -38 -3 -43 -6 -43 -28 0 -22 3 -24 53 -24 63 0 77 11 77 62 0 39 -2 41
-53 52 -35 8 -26 26 14 26 22 0 29 5 29 20 0 17 -6 20 -47 19 -27 0 -54 -3
-60 -6z"/>
<path d="M1090 1130 c0 -89 0 -90 25 -90 20 0 25 5 25 24 0 20 6 24 39 30 40
6 51 19 51 62 0 52 -16 64 -80 64 l-60 0 0 -90z m87 34 c6 -16 -15 -37 -29
-28 -4 3 -8 14 -8 25 0 23 28 26 37 3z"/>
<path d="M1257 1213 c-13 -13 -7 -31 13 -36 30 -8 29 -82 -1 -90 -13 -4 -20
-12 -17 -24 3 -15 15 -19 66 -21 58 -3 62 -1 62 18 0 13 -8 24 -20 27 -16 4
-20 14 -20 45 0 31 4 41 20 45 11 3 20 14 20 24 0 16 -8 19 -58 19 -32 0 -62
-3 -65 -7z"/>
<path d="M1400 1201 c0 -13 8 -21 23 -23 20 -3 22 -9 25 -70 3 -64 4 -68 27
-68 23 0 24 4 27 68 3 61 5 67 26 70 14 2 22 10 22 23 0 17 -8 19 -75 19 -67
0 -75 -2 -75 -19z"/>
<path d="M1585 1184 c-8 -20 -15 -61 -15 -90 0 -51 1 -54 25 -54 20 0 25 5 25
26 0 21 4 25 23 22 14 -2 23 -11 25 -25 3 -17 10 -23 28 -23 22 0 24 4 24 43
0 23 -8 63 -17 90 -17 46 -18 47 -60 47 -40 0 -44 -3 -58 -36z m73 -37 c2 -12
-3 -17 -17 -17 -23 0 -24 1 -15 25 8 19 28 15 32 -8z"/>
<path d="M1754 1207 c-3 -8 -4 -47 -2 -88 l3 -74 73 -3 73 -3 -3 48 c-3 41 -6
48 -25 51 -19 3 -23 -1 -23 -22 0 -19 -5 -26 -20 -26 -18 0 -20 7 -20 65 0 63
-1 65 -25 65 -14 0 -28 -6 -31 -13z"/>
<path d="M250 1168 c-50 -14 -97 -53 -121 -100 -17 -33 -20 -55 -17 -109 3
-57 8 -74 34 -106 51 -63 81 -73 227 -73 l127 0 0 125 c0 106 -3 132 -20 165
-24 47 -71 84 -125 99 -47 13 -58 13 -105 -1z m90 -108 l0 -50 50 0 50 0 0
-35 0 -35 -50 0 -50 0 0 -50 0 -50 -35 0 -35 0 0 50 0 50 -50 0 -50 0 0 35 0
35 50 0 50 0 0 50 0 50 35 0 35 0 0 -50z"/>
<path d="M549 976 c-17 -37 -4 -75 29 -82 53 -11 57 -18 12 -23 -36 -5 -45
-10 -45 -26 0 -17 8 -20 47 -23 70 -5 90 10 86 61 -3 39 -5 42 -40 50 -48 11
-49 27 -3 27 28 0 35 4 35 20 0 18 -7 20 -55 20 -49 0 -57 -3 -66 -24z"/>
<path d="M710 980 c0 -11 7 -20 15 -20 11 0 15 -12 15 -45 0 -33 -4 -45 -15
-45 -9 0 -15 -9 -15 -25 0 -24 3 -25 60 -25 57 0 60 1 60 25 0 16 -6 25 -15
25 -11 0 -15 12 -15 45 0 33 4 45 15 45 8 0 15 9 15 20 0 18 -7 20 -60 20 -53
0 -60 -2 -60 -20z"/>
<path d="M870 910 c0 -89 0 -90 25 -90 23 0 25 4 25 46 0 41 2 45 16 33 12
-10 20 -10 35 -1 18 11 19 9 19 -33 0 -41 2 -45 25 -45 25 0 25 1 25 90 0 89
0 90 -24 90 -15 0 -32 -11 -44 -27 l-20 -28 -13 28 c-9 20 -19 27 -41 27 l-28
0 0 -90z"/>
<path d="M1082 913 c3 -86 3 -88 28 -88 18 0 26 6 28 21 2 15 14 23 40 30 43
11 62 47 46 92 -9 25 -13 27 -77 30 l-68 3 3 -88z m88 27 c0 -11 -7 -20 -15
-20 -8 0 -15 9 -15 20 0 11 7 20 15 20 8 0 15 -9 15 -20z"/>
<path d="M1260 910 l0 -90 70 0 70 0 0 50 c0 47 -2 50 -25 50 -20 0 -25 -5
-25 -25 0 -18 -5 -25 -20 -25 -18 0 -20 7 -20 65 0 63 -1 65 -25 65 -25 0 -25
-1 -25 -90z"/>
<path d="M1432 913 l3 -88 65 0 c58 0 65 2 65 20 0 16 -8 21 -37 23 -42 4 -53
22 -13 22 18 0 25 5 25 20 0 15 -7 20 -25 20 -42 0 -31 28 12 32 27 2 39 8 41
21 3 15 -5 17 -68 17 l-71 0 3 -87z"/>
</g>
</svg>
