<?xml version="1.0" standalone="no"?>
<!DOCTYPE svg PUBLIC "-//W3C//DTD SVG 20010904//EN"
 "http://www.w3.org/TR/2001/REC-SVG-20010904/DTD/svg10.dtd">
<svg version="1.0" xmlns="http://www.w3.org/2000/svg"
 width="200.000000pt" height="200.000000pt" viewBox="0 0 200.000000 200.000000"
 preserveAspectRatio="xMidYMid meet">

<g transform="translate(0.000000,200.000000) scale(0.100000,-0.100000)"
fill="#000000" stroke="none">
<path d="M831 1880 c-427 -90 -724 -452 -722 -880 0 -176 34 -310 119 -475
110 -214 359 -383 614 -415 47 -6 294 -10 571 -10 l489 0 -4 513 -4 512 -27
97 c-68 255 -241 466 -472 578 -55 27 -127 56 -160 65 -70 20 -335 29 -404 15z
m319 -515 l0 -225 225 0 225 0 0 -140 0 -140 -225 0 -225 0 0 -225 0 -225
-140 0 -140 0 0 225 0 225 -225 0 -226 0 3 137 3 138 223 3 222 2 0 225 0 225
140 0 140 0 0 -225z"/>
</g>
</svg>
