<?xml version="1.0" encoding="UTF-8"?>
<svg xmlns="http://www.w3.org/2000/svg" xmlns:xlink="http://www.w3.org/1999/xlink" width="1087pt" height="600pt" viewBox="0 0 1087 600" version="1.1">
<g id="surface1">
<path style=" stroke:none;fill-rule:nonzero;fill:rgb(24.705882%,23.921569%,33.72549%);fill-opacity:1;" d="M 974.554688 313.8125 L 221.164062 313.8125 C 215.675781 313.804688 211.230469 309.355469 211.222656 303.867188 L 211.222656 9.945312 C 211.230469 4.453125 215.675781 0.0078125 221.164062 0 L 974.554688 0 C 980.042969 0.0078125 984.488281 4.453125 984.496094 9.945312 L 984.496094 303.867188 C 984.488281 309.355469 980.042969 313.804688 974.554688 313.8125 Z M 221.164062 2.210938 C 216.894531 2.214844 213.4375 5.675781 213.433594 9.945312 L 213.433594 303.867188 C 213.4375 308.136719 216.894531 311.597656 221.164062 311.601562 L 974.554688 311.601562 C 978.820312 311.597656 982.28125 308.136719 982.285156 303.867188 L 982.285156 9.945312 C 982.28125 5.675781 978.820312 2.214844 974.554688 2.210938 Z M 221.164062 2.210938 "/>
<path style=" stroke:none;fill-rule:nonzero;fill:rgb(100%,39.607843%,51.764706%);fill-opacity:1;" d="M 572.933594 190.304688 L 517.910156 190.304688 C 514.46875 159.6875 522.0625 136.867188 517.910156 124.261719 L 572.933594 124.261719 C 570.816406 146.222656 570.816406 168.339844 572.933594 190.304688 Z M 572.933594 190.304688 "/>
<path style=" stroke:none;fill-rule:nonzero;fill:rgb(100%,39.607843%,51.764706%);fill-opacity:1;" d="M 55.945312 469.863281 L 0.921875 469.863281 C -2.519531 439.246094 5.074219 416.425781 0.921875 403.816406 L 55.945312 403.816406 C 53.832031 425.78125 53.832031 447.898438 55.945312 469.863281 Z M 55.945312 469.863281 "/>
<path style=" stroke:none;fill-rule:nonzero;fill:rgb(53.72549%,50.980392%,87.843137%);fill-opacity:1;" d="M 907.648438 251.078125 L 852.628906 251.078125 C 849.1875 220.460938 856.777344 197.640625 852.628906 185.035156 L 907.648438 185.035156 C 905.535156 206.996094 905.535156 229.113281 907.648438 251.078125 Z M 907.648438 251.078125 "/>
<path style=" stroke:none;fill-rule:nonzero;fill:rgb(90.196078%,90.196078%,90.196078%);fill-opacity:1;" d="M 289.886719 218.550781 L 234.863281 218.550781 C 236.925781 193.15625 243.578125 169.445312 234.863281 152.507812 L 289.886719 152.507812 C 300.246094 174.523438 300.246094 196.535156 289.886719 218.550781 Z M 289.886719 218.550781 "/>
<path style=" stroke:none;fill-rule:nonzero;fill:rgb(90.196078%,90.196078%,90.196078%);fill-opacity:1;" d="M 334.074219 303.632812 L 279.050781 303.632812 C 281.113281 278.238281 287.765625 254.527344 279.050781 237.589844 L 334.074219 237.589844 C 344.433594 259.605469 344.433594 281.621094 334.074219 303.632812 Z M 334.074219 303.632812 "/>
<path style=" stroke:none;fill-rule:nonzero;fill:rgb(53.72549%,50.980392%,87.843137%);fill-opacity:1;" d="M 820.128906 147.832031 L 765.109375 147.832031 C 767.171875 122.4375 773.824219 98.726562 765.109375 81.789062 L 820.128906 81.789062 C 830.488281 103.804688 830.488281 125.820312 820.128906 147.832031 Z M 820.128906 147.832031 "/>
<path style=" stroke:none;fill-rule:nonzero;fill:rgb(90.196078%,90.196078%,90.196078%);fill-opacity:1;" d="M 657.742188 234.019531 L 602.722656 234.019531 C 604.785156 208.625 611.4375 184.914062 602.722656 167.976562 L 657.742188 167.976562 C 668.101562 189.992188 668.101562 212.007812 657.742188 234.019531 Z M 657.742188 234.019531 "/>
<path style=" stroke:none;fill-rule:nonzero;fill:rgb(24.705882%,23.921569%,33.72549%);fill-opacity:1;" d="M 346.128906 162.292969 L 401.152344 162.292969 C 404.59375 136.894531 397 113.179688 401.152344 96.25 L 346.128906 96.25 C 335.769531 118.261719 335.769531 140.277344 346.128906 162.292969 Z M 346.128906 162.292969 "/>
<path style=" stroke:none;fill-rule:nonzero;fill:rgb(24.705882%,23.921569%,33.72549%);fill-opacity:1;" d="M 383.550781 40.882812 L 280.816406 40.882812 C 279.597656 40.882812 278.609375 39.894531 278.609375 38.675781 C 278.609375 37.453125 279.597656 36.464844 280.816406 36.464844 L 383.550781 36.464844 C 384.773438 36.464844 385.761719 37.453125 385.761719 38.675781 C 385.761719 39.894531 384.773438 40.882812 383.550781 40.882812 Z M 383.550781 40.882812 "/>
<path style=" stroke:none;fill-rule:nonzero;fill:rgb(24.705882%,23.921569%,33.72549%);fill-opacity:1;" d="M 649.777344 40.882812 L 547.042969 40.882812 C 545.824219 40.882812 544.835938 39.894531 544.835938 38.675781 C 544.835938 37.453125 545.824219 36.464844 547.042969 36.464844 L 649.777344 36.464844 C 651 36.464844 651.988281 37.453125 651.988281 38.675781 C 651.988281 39.894531 651 40.882812 649.777344 40.882812 Z M 649.777344 40.882812 "/>
<path style=" stroke:none;fill-rule:nonzero;fill:rgb(24.705882%,23.921569%,33.72549%);fill-opacity:1;" d="M 916.003906 40.882812 L 813.269531 40.882812 C 812.050781 40.882812 811.0625 39.894531 811.0625 38.675781 C 811.0625 37.453125 812.050781 36.464844 813.269531 36.464844 L 916.003906 36.464844 C 917.226562 36.464844 918.214844 37.453125 918.214844 38.675781 C 918.214844 39.894531 917.226562 40.882812 916.003906 40.882812 Z M 916.003906 40.882812 "/>
<path style=" stroke:none;fill-rule:nonzero;fill:rgb(24.705882%,23.921569%,33.72549%);fill-opacity:1;" d="M 464.195312 1.105469 L 466.402344 1.105469 L 466.402344 312.707031 L 464.195312 312.707031 Z M 464.195312 1.105469 "/>
<path style=" stroke:none;fill-rule:nonzero;fill:rgb(24.705882%,23.921569%,33.72549%);fill-opacity:1;" d="M 730.421875 1.105469 L 732.628906 1.105469 L 732.628906 312.707031 L 730.421875 312.707031 Z M 730.421875 1.105469 "/>
<path style=" stroke:none;fill-rule:nonzero;fill:rgb(53.72549%,50.980392%,87.843137%);fill-opacity:1;" d="M 234.34375 230.003906 C 234.34375 262.664062 207.875 289.140625 175.222656 289.140625 C 142.570312 289.140625 116.101562 262.664062 116.101562 230.003906 C 116.101562 197.34375 142.570312 170.867188 175.222656 170.867188 C 207.875 170.867188 234.34375 197.34375 234.34375 230.003906 Z M 234.34375 230.003906 "/>
<path style=" stroke:none;fill-rule:nonzero;fill:rgb(53.72549%,50.980392%,87.843137%);fill-opacity:1;" d="M 165.90625 600.550781 L 149.601562 600.550781 C 145.640625 600.546875 142.425781 597.332031 142.421875 593.367188 L 142.421875 457.441406 C 142.425781 453.476562 145.640625 450.261719 149.601562 450.257812 L 165.90625 450.257812 C 169.871094 450.261719 173.082031 453.476562 173.085938 457.441406 L 173.085938 593.367188 C 173.082031 597.332031 169.871094 600.546875 165.90625 600.550781 Z M 165.90625 600.550781 "/>
<path style=" stroke:none;fill-rule:nonzero;fill:rgb(53.72549%,50.980392%,87.843137%);fill-opacity:1;" d="M 198.15625 600.550781 L 181.851562 600.550781 C 177.886719 600.546875 174.675781 597.332031 174.671875 593.367188 L 174.671875 457.441406 C 174.675781 453.476562 177.886719 450.261719 181.851562 450.257812 L 198.15625 450.257812 C 202.121094 450.261719 205.332031 453.476562 205.335938 457.441406 L 205.335938 593.367188 C 205.332031 597.332031 202.121094 600.546875 198.15625 600.550781 Z M 198.15625 600.550781 "/>
<path style=" stroke:none;fill-rule:nonzero;fill:rgb(53.72549%,50.980392%,87.843137%);fill-opacity:1;" d="M 45.515625 430.855469 C 44.765625 430.855469 44.015625 430.734375 43.300781 430.503906 C 41.488281 429.921875 39.980469 428.640625 39.117188 426.941406 L 31.6875 412.421875 C 29.882812 408.890625 31.277344 404.566406 34.808594 402.757812 L 155.773438 340.828125 C 159.304688 339.019531 163.632812 340.417969 165.4375 343.949219 L 172.867188 358.464844 C 174.671875 361.996094 173.277344 366.324219 169.746094 368.132812 L 48.78125 430.0625 C 47.769531 430.582031 46.652344 430.855469 45.515625 430.855469 Z M 45.515625 430.855469 "/>
<path style=" stroke:none;fill-rule:nonzero;fill:rgb(53.72549%,50.980392%,87.843137%);fill-opacity:1;" d="M 211.617188 367.8125 C 209.910156 367.816406 208.257812 367.203125 206.960938 366.089844 L 194.570312 355.488281 C 191.5625 352.910156 191.207031 348.378906 193.78125 345.363281 L 282.097656 242.054688 C 284.675781 239.046875 289.207031 238.691406 292.21875 241.265625 L 304.613281 251.867188 C 307.625 254.445312 307.980469 258.976562 305.402344 261.992188 L 217.085938 365.296875 C 215.851562 366.75 214.085938 367.648438 212.1875 367.789062 C 211.996094 367.804688 211.804688 367.8125 211.617188 367.8125 Z M 211.617188 367.8125 "/>
<path style=" stroke:none;fill-rule:nonzero;fill:rgb(18.431373%,18.039216%,25.490196%);fill-opacity:1;" d="M 177.339844 170.859375 C 175.417969 151.675781 162.816406 133.332031 143.574219 128.339844 C 134.1875 125.847656 124.21875 126.753906 115.433594 130.894531 C 107.480469 134.910156 101.226562 141.640625 97.808594 149.867188 C 94.433594 158.007812 93.144531 166.863281 94.050781 175.625 C 95.078125 185.207031 98.132812 194.457031 103.015625 202.761719 C 108.234375 211.964844 115.023438 220.191406 122.144531 227.96875 C 129.402344 235.898438 137.613281 243.1875 143.71875 252.089844 C 149.136719 259.980469 153.492188 270.699219 148.152344 279.78125 C 143.878906 286.585938 136.023438 290.257812 128.066406 289.167969 C 126.15625 288.878906 124.308594 288.265625 122.601562 287.351562 C 120.722656 286.347656 119.046875 289.210938 120.929688 290.214844 C 128.078125 294.03125 136.964844 293.167969 143.714844 288.875 C 151.5 283.929688 154.972656 275.195312 153.515625 266.171875 C 151.851562 255.878906 144.675781 247.042969 137.789062 239.636719 C 130.59375 231.898438 123.058594 224.511719 116.394531 216.289062 C 109.808594 208.171875 103.933594 199.207031 100.410156 189.308594 C 97.449219 181.039062 96.460938 172.1875 97.527344 163.46875 C 98.574219 155.136719 101.8125 146.886719 107.621094 140.722656 C 114.109375 134.035156 123.035156 130.269531 132.351562 130.285156 C 141.917969 130.164062 151.199219 133.578125 158.410156 139.871094 C 165.519531 146.234375 170.539062 154.597656 172.800781 163.871094 C 173.378906 166.167969 173.789062 168.5 174.027344 170.859375 C 174.238281 172.960938 177.554688 172.980469 177.339844 170.859375 Z M 177.339844 170.859375 "/>
<path style=" stroke:none;fill-rule:nonzero;fill:rgb(18.431373%,18.039216%,25.490196%);fill-opacity:1;" d="M 164.886719 170.40625 C 161.902344 170.402344 159.363281 168.234375 158.890625 165.289062 C 158.421875 162.34375 160.15625 159.492188 162.988281 158.554688 L 178.722656 153.359375 C 181.90625 152.308594 185.34375 154.039062 186.394531 157.222656 C 187.449219 160.410156 185.71875 163.847656 182.53125 164.898438 L 166.796875 170.097656 C 166.179688 170.300781 165.535156 170.40625 164.886719 170.40625 Z M 164.886719 170.40625 "/>
<path style=" stroke:none;fill-rule:nonzero;fill:rgb(18.431373%,18.039216%,25.490196%);fill-opacity:1;" d="M 271.113281 474.585938 L 87.207031 474.585938 C 84.636719 474.59375 82.261719 473.226562 80.976562 471.003906 C 79.691406 468.777344 79.695312 466.03125 80.988281 463.8125 L 172.941406 304.5 C 173.261719 303.949219 173.648438 303.441406 174.097656 302.988281 L 174.117188 302.972656 L 174.121094 302.964844 C 175.128906 301.964844 176.414062 301.292969 177.8125 301.035156 C 177.90625 301.015625 177.996094 301 178.089844 300.988281 C 178.445312 300.933594 178.804688 300.910156 179.160156 300.910156 C 181.730469 300.894531 184.109375 302.265625 185.378906 304.5 L 277.332031 463.8125 C 278.617188 466.035156 278.617188 468.773438 277.332031 470.996094 C 276.050781 473.21875 273.679688 474.585938 271.113281 474.585938 Z M 271.113281 474.585938 "/>
<path style=" stroke:none;fill-rule:nonzero;fill:rgb(18.431373%,18.039216%,25.490196%);fill-opacity:1;" d="M 219.21875 239.71875 L 219.15625 237.507812 C 223.265625 237.394531 226.890625 237.136719 229.613281 235.144531 C 231.175781 233.941406 232.136719 232.113281 232.242188 230.140625 C 232.339844 228.9375 231.871094 227.753906 230.96875 226.945312 C 229.164062 225.414062 226.253906 225.910156 224.132812 226.882812 L 222.304688 227.722656 L 225.8125 202.097656 L 228 202.398438 L 225.019531 224.195312 C 227.898438 223.347656 230.566406 223.710938 232.394531 225.257812 C 233.820312 226.5 234.578125 228.335938 234.449219 230.21875 C 234.320312 232.867188 233.027344 235.324219 230.914062 236.929688 C 227.417969 239.488281 222.871094 239.617188 219.21875 239.71875 Z M 219.21875 239.71875 "/>
<path style=" stroke:none;fill-rule:nonzero;fill:rgb(18.431373%,18.039216%,25.490196%);fill-opacity:1;" d="M 201.265625 204.277344 L 213.164062 204.277344 L 213.164062 206.488281 L 201.265625 206.488281 Z M 201.265625 204.277344 "/>
<path style=" stroke:none;fill-rule:nonzero;fill:rgb(53.72549%,50.980392%,87.843137%);fill-opacity:1;" d="M 1022.425781 377.601562 L 908.347656 303.742188 C 905.015625 301.589844 904.0625 297.140625 906.21875 293.8125 L 915.078125 280.121094 C 917.234375 276.792969 921.679688 275.84375 925.007812 277.992188 L 1039.085938 351.851562 C 1042.410156 354.011719 1043.363281 358.453125 1041.214844 361.785156 L 1032.355469 375.476562 C 1030.199219 378.804688 1025.753906 379.753906 1022.425781 377.601562 Z M 1022.425781 377.601562 "/>
<path style=" stroke:none;fill-rule:nonzero;fill:rgb(80%,80%,80%);fill-opacity:1;" d="M 1022.757812 376.6875 L 975.070312 350.054688 C 971.980469 348.328125 970.792969 344.480469 972.367188 341.3125 L 983.417969 319.109375 C 984.300781 317.332031 985.933594 316.046875 987.867188 315.601562 C 989.796875 315.15625 991.828125 315.601562 993.398438 316.8125 L 1038.828125 351.863281 C 1041.894531 353.855469 1042.773438 357.953125 1040.792969 361.03125 L 1031.933594 374.722656 C 1029.941406 377.796875 1025.835938 378.675781 1022.757812 376.6875 Z M 1022.757812 376.6875 "/>
<path style=" stroke:none;fill-rule:nonzero;fill:rgb(53.72549%,50.980392%,87.843137%);fill-opacity:1;" d="M 1086.519531 231.972656 C 1086.519531 264.636719 1060.050781 291.113281 1027.398438 291.113281 C 994.746094 291.113281 968.277344 264.636719 968.277344 231.972656 C 968.277344 199.3125 994.746094 172.835938 1027.398438 172.835938 C 1060.050781 172.835938 1086.519531 199.3125 1086.519531 231.972656 Z M 1086.519531 231.972656 "/>
<path style=" stroke:none;fill-rule:nonzero;fill:rgb(18.431373%,18.039216%,25.490196%);fill-opacity:1;" d="M 1029.535156 593.128906 L 1029.535156 457.203125 C 1029.539062 453.238281 1032.75 450.023438 1036.714844 450.019531 L 1053.019531 450.019531 C 1056.984375 450.023438 1060.195312 453.238281 1060.199219 457.203125 L 1060.199219 593.128906 C 1060.195312 597.09375 1056.984375 600.308594 1053.019531 600.3125 L 1036.714844 600.3125 C 1032.75 600.308594 1029.539062 597.09375 1029.535156 593.128906 Z M 1029.535156 593.128906 "/>
<path style=" stroke:none;fill-rule:nonzero;fill:rgb(18.431373%,18.039216%,25.490196%);fill-opacity:1;" d="M 997.285156 593.128906 L 997.285156 457.203125 C 997.289062 453.238281 1000.503906 450.023438 1004.464844 450.019531 L 1020.769531 450.019531 C 1024.734375 450.023438 1027.945312 453.238281 1027.953125 457.203125 L 1027.953125 593.128906 C 1027.945312 597.09375 1024.734375 600.308594 1020.769531 600.3125 L 1004.464844 600.3125 C 1000.503906 600.308594 997.289062 597.09375 997.285156 593.128906 Z M 997.285156 593.128906 "/>
<path style=" stroke:none;fill-rule:nonzero;fill:rgb(80%,80%,80%);fill-opacity:1;" d="M 983.847656 465.449219 L 983.847656 308.015625 C 983.855469 304.050781 987.066406 300.839844 991.03125 300.832031 L 1032.660156 300.832031 C 1054.539062 300.859375 1072.265625 318.59375 1072.292969 340.476562 L 1072.292969 465.449219 C 1072.289062 469.414062 1069.074219 472.625 1065.113281 472.628906 L 991.03125 472.628906 C 987.066406 472.625 983.855469 469.414062 983.847656 465.449219 Z M 983.847656 465.449219 "/>
<path style=" stroke:none;fill-rule:nonzero;fill:rgb(18.431373%,18.039216%,25.490196%);fill-opacity:1;" d="M 975.792969 248.40625 L 975.855469 246.195312 C 971.746094 246.082031 968.121094 245.820312 965.398438 243.832031 C 963.835938 242.625 962.875 240.800781 962.769531 238.828125 C 962.671875 237.621094 963.140625 236.441406 964.042969 235.628906 C 965.847656 234.101562 968.757812 234.597656 970.878906 235.570312 L 972.707031 236.410156 L 969.199219 210.785156 L 967.011719 211.082031 L 969.992188 232.882812 C 967.113281 232.035156 964.445312 232.398438 962.617188 233.941406 C 961.191406 235.183594 960.433594 237.023438 960.558594 238.90625 C 960.691406 241.554688 961.984375 244.011719 964.09375 245.617188 C 967.59375 248.175781 972.140625 248.300781 975.792969 248.40625 Z M 975.792969 248.40625 "/>
<path style=" stroke:none;fill-rule:nonzero;fill:rgb(18.431373%,18.039216%,25.490196%);fill-opacity:1;" d="M 981.847656 212.964844 L 993.746094 212.964844 L 993.746094 215.171875 L 981.847656 215.171875 Z M 981.847656 212.964844 "/>
<path style=" stroke:none;fill-rule:nonzero;fill:rgb(53.72549%,50.980392%,87.843137%);fill-opacity:1;" d="M 955.636719 462.039062 L 941.234375 454.390625 C 937.738281 452.527344 936.40625 448.183594 938.257812 444.679688 L 1001.960938 324.613281 C 1003.824219 321.113281 1008.164062 319.78125 1011.667969 321.636719 L 1026.070312 329.28125 C 1029.570312 331.144531 1030.902344 335.488281 1029.046875 338.992188 L 965.347656 459.058594 C 964.457031 460.742188 962.933594 462.003906 961.109375 462.5625 C 959.289062 463.121094 957.320312 462.933594 955.636719 462.039062 Z M 955.636719 462.039062 "/>
<path style=" stroke:none;fill-rule:nonzero;fill:rgb(80%,80%,80%);fill-opacity:1;" d="M 1033.632812 338.738281 L 1005.703125 388.5625 C 1004.25 391.789062 1000.519531 393.308594 997.226562 392.011719 L 974.160156 382.921875 C 972.316406 382.195312 970.890625 380.679688 970.28125 378.792969 C 969.671875 376.902344 969.941406 374.84375 971.011719 373.171875 L 1001.992188 322.660156 C 1003.710938 319.429688 1007.71875 318.203125 1010.953125 319.910156 L 1030.878906 329.765625 C 1034.113281 331.484375 1035.34375 335.5 1033.632812 338.738281 Z M 1033.632812 338.738281 "/>
<path style=" stroke:none;fill-rule:nonzero;fill:rgb(18.431373%,18.039216%,25.490196%);fill-opacity:1;" d="M 1010.886719 193.144531 C 1000.75 194.730469 988.480469 196.351562 980.859375 187.816406 C 977.785156 184.613281 976.722656 179.980469 978.097656 175.757812 C 979.570312 171.566406 983.359375 168.371094 987.335938 166.636719 C 993.28125 164.042969 1000.050781 164.199219 1006.402344 164.273438 C 1007.296875 164.242188 1008.003906 163.507812 1008.003906 162.617188 C 1008.003906 161.722656 1007.296875 160.988281 1006.402344 160.957031 C 999.917969 160.882812 993.136719 160.824219 986.996094 163.214844 C 982.167969 165.097656 977.691406 168.585938 975.503906 173.390625 C 970.710938 183.921875 979.566406 194.203125 989.570312 196.765625 C 996.871094 198.636719 1004.453125 197.484375 1011.769531 196.339844 C 1013.867188 196.011719 1012.976562 192.816406 1010.886719 193.144531 Z M 1010.886719 193.144531 "/>
<path style=" stroke:none;fill-rule:nonzero;fill:rgb(24.705882%,23.921569%,33.72549%);fill-opacity:1;" d="M 871.953125 353.453125 L 926.976562 353.453125 C 930.417969 328.054688 922.824219 304.339844 926.976562 287.410156 L 871.953125 287.410156 C 861.59375 309.421875 861.59375 331.4375 871.953125 353.453125 Z M 871.953125 353.453125 "/>
</g>
</svg>
